<mxfile host="app.diagrams.net" modified="2023-06-30T11:26:40.324Z" agent="Mozilla/5.0 (Macintosh; Intel Mac OS X 10_15_7) AppleWebKit/537.36 (KHTML, like Gecko) Chrome/98.0.4758.102 Safari/537.36" etag="Uh0oiHc6F0sPVtYw7UYy" version="21.2.2" type="github" pages="2">
  <diagram id="prtHgNgQTEPvFCAcTncT" name="Page-1">
    <mxGraphModel dx="954" dy="537" grid="1" gridSize="10" guides="1" tooltips="1" connect="1" arrows="1" fold="1" page="1" pageScale="1" pageWidth="827" pageHeight="1169" math="0" shadow="0">
      <root>
        <mxCell id="0" />
        <mxCell id="1" parent="0" />
        <mxCell id="o4_2ZhEMk7QJLGMqmEKo-33" value="Pool" style="swimlane;html=1;childLayout=stackLayout;resizeParent=1;resizeParentMax=0;horizontal=0;startSize=20;horizontalStack=0;sketch=1;hachureGap=4;jiggle=2;curveFitting=1;fontFamily=Architects Daughter;fontSource=https%3A%2F%2Ffonts.googleapis.com%2Fcss%3Ffamily%3DArchitects%2BDaughter;fontSize=20;" vertex="1" parent="1">
          <mxGeometry x="20" y="20" width="760" height="480" as="geometry" />
        </mxCell>
        <mxCell id="o4_2ZhEMk7QJLGMqmEKo-38" value="" style="swimlane;html=1;startSize=20;horizontal=0;hachureGap=4;fontFamily=Architects Daughter;fontSource=https%3A%2F%2Ffonts.googleapis.com%2Fcss%3Ffamily%3DArchitects%2BDaughter;fontSize=20;swimlaneFillColor=none;swimlaneLine=0;" vertex="1" parent="o4_2ZhEMk7QJLGMqmEKo-33">
          <mxGeometry x="20" width="740" height="120" as="geometry" />
        </mxCell>
        <mxCell id="o4_2ZhEMk7QJLGMqmEKo-40" value="&lt;font style=&quot;font-size: 12px;&quot;&gt;开始&lt;/font&gt;" style="ellipse;whiteSpace=wrap;html=1;sketch=1;hachureGap=4;jiggle=2;curveFitting=1;fontFamily=Architects Daughter;fontSource=https%3A%2F%2Ffonts.googleapis.com%2Fcss%3Ffamily%3DArchitects%2BDaughter;fontSize=20;" vertex="1" parent="o4_2ZhEMk7QJLGMqmEKo-38">
          <mxGeometry x="57.5" y="30" width="40" height="40" as="geometry" />
        </mxCell>
        <mxCell id="o4_2ZhEMk7QJLGMqmEKo-57" value="ObjTypeList" style="rounded=0;whiteSpace=wrap;html=1;fontFamily=Helvetica;fontSize=12;fontColor=#000000;align=center;sketch=1;hachureGap=4;jiggle=2;curveFitting=1;fontSource=https%3A%2F%2Ffonts.googleapis.com%2Fcss%3Ffamily%3DArchitects%2BDaughter;" vertex="1" parent="o4_2ZhEMk7QJLGMqmEKo-38">
          <mxGeometry x="150" y="30" width="80" height="20" as="geometry" />
        </mxCell>
        <mxCell id="o4_2ZhEMk7QJLGMqmEKo-74" value="" style="group" vertex="1" connectable="0" parent="o4_2ZhEMk7QJLGMqmEKo-38">
          <mxGeometry x="150" y="15" width="120" height="90" as="geometry" />
        </mxCell>
        <mxCell id="o4_2ZhEMk7QJLGMqmEKo-61" value="deptData" style="rounded=0;whiteSpace=wrap;html=1;fontFamily=Helvetica;fontSize=12;fontColor=#000000;align=center;sketch=1;hachureGap=4;jiggle=2;curveFitting=1;fontSource=https%3A%2F%2Ffonts.googleapis.com%2Fcss%3Ffamily%3DArchitects%2BDaughter;" vertex="1" parent="o4_2ZhEMk7QJLGMqmEKo-74">
          <mxGeometry y="35" width="80" height="20" as="geometry" />
        </mxCell>
        <mxCell id="o4_2ZhEMk7QJLGMqmEKo-71" value="..." style="rounded=0;whiteSpace=wrap;html=1;fontFamily=Helvetica;fontSize=12;fontColor=#000000;align=center;sketch=1;hachureGap=4;jiggle=2;curveFitting=1;fontSource=https%3A%2F%2Ffonts.googleapis.com%2Fcss%3Ffamily%3DArchitects%2BDaughter;" vertex="1" parent="o4_2ZhEMk7QJLGMqmEKo-74">
          <mxGeometry y="60" width="80" height="20" as="geometry" />
        </mxCell>
        <mxCell id="o4_2ZhEMk7QJLGMqmEKo-73" value="" style="rounded=0;whiteSpace=wrap;html=1;sketch=1;hachureGap=4;jiggle=2;curveFitting=1;fontFamily=Architects Daughter;fontSource=https%3A%2F%2Ffonts.googleapis.com%2Fcss%3Ffamily%3DArchitects%2BDaughter;fontSize=20;fillColor=none;" vertex="1" parent="o4_2ZhEMk7QJLGMqmEKo-74">
          <mxGeometry x="-20" width="120" height="90" as="geometry" />
        </mxCell>
        <mxCell id="o4_2ZhEMk7QJLGMqmEKo-77" value="redux store" style="swimlane;html=1;startSize=20;horizontal=0;sketch=1;hachureGap=4;jiggle=2;curveFitting=1;fontFamily=Architects Daughter;fontSource=https%3A%2F%2Ffonts.googleapis.com%2Fcss%3Ffamily%3DArchitects%2BDaughter;fontSize=20;" vertex="1" parent="o4_2ZhEMk7QJLGMqmEKo-38">
          <mxGeometry width="740" height="120" as="geometry" />
        </mxCell>
        <mxCell id="o4_2ZhEMk7QJLGMqmEKo-85" value="" style="rounded=0;whiteSpace=wrap;html=1;fontFamily=Helvetica;fontSize=12;fontColor=#000000;align=center;sketch=1;hachureGap=4;jiggle=2;curveFitting=1;fontSource=https%3A%2F%2Ffonts.googleapis.com%2Fcss%3Ffamily%3DArchitects%2BDaughter;" vertex="1" parent="o4_2ZhEMk7QJLGMqmEKo-77">
          <mxGeometry x="400" y="15" width="80" height="60" as="geometry" />
        </mxCell>
        <mxCell id="o4_2ZhEMk7QJLGMqmEKo-45" value="request" style="swimlane;html=1;startSize=20;horizontal=0;sketch=1;hachureGap=4;jiggle=2;curveFitting=1;fontFamily=Architects Daughter;fontSource=https%3A%2F%2Ffonts.googleapis.com%2Fcss%3Ffamily%3DArchitects%2BDaughter;fontSize=20;" vertex="1" parent="o4_2ZhEMk7QJLGMqmEKo-33">
          <mxGeometry x="20" y="120" width="740" height="120" as="geometry" />
        </mxCell>
        <mxCell id="o4_2ZhEMk7QJLGMqmEKo-41" value="请求&lt;br&gt;方案数据" style="rounded=0;whiteSpace=wrap;html=1;fontFamily=Helvetica;fontSize=12;fontColor=#000000;align=center;sketch=1;hachureGap=4;jiggle=2;curveFitting=1;fontSource=https%3A%2F%2Ffonts.googleapis.com%2Fcss%3Ffamily%3DArchitects%2BDaughter;" vertex="1" parent="o4_2ZhEMk7QJLGMqmEKo-45">
          <mxGeometry x="40" y="40" width="75" height="60" as="geometry" />
        </mxCell>
        <mxCell id="o4_2ZhEMk7QJLGMqmEKo-81" value="组件" style="swimlane;html=1;startSize=20;horizontal=0;sketch=1;hachureGap=4;jiggle=2;curveFitting=1;fontFamily=Architects Daughter;fontSource=https%3A%2F%2Ffonts.googleapis.com%2Fcss%3Ffamily%3DArchitects%2BDaughter;fontSize=20;" vertex="1" parent="o4_2ZhEMk7QJLGMqmEKo-33">
          <mxGeometry x="20" y="240" width="740" height="120" as="geometry" />
        </mxCell>
        <mxCell id="o4_2ZhEMk7QJLGMqmEKo-82" value="渲染维度&lt;br&gt;" style="rounded=0;whiteSpace=wrap;html=1;fontFamily=Helvetica;fontSize=12;fontColor=#000000;align=center;sketch=1;hachureGap=4;jiggle=2;curveFitting=1;fontSource=https%3A%2F%2Ffonts.googleapis.com%2Fcss%3Ffamily%3DArchitects%2BDaughter;" vertex="1" parent="o4_2ZhEMk7QJLGMqmEKo-81">
          <mxGeometry x="280" y="40" width="80" height="60" as="geometry" />
        </mxCell>
        <mxCell id="o4_2ZhEMk7QJLGMqmEKo-49" value="组件" style="swimlane;html=1;startSize=20;horizontal=0;sketch=1;hachureGap=4;jiggle=2;curveFitting=1;fontFamily=Architects Daughter;fontSource=https%3A%2F%2Ffonts.googleapis.com%2Fcss%3Ffamily%3DArchitects%2BDaughter;fontSize=20;" vertex="1" parent="o4_2ZhEMk7QJLGMqmEKo-33">
          <mxGeometry x="20" y="360" width="740" height="120" as="geometry" />
        </mxCell>
        <mxCell id="o4_2ZhEMk7QJLGMqmEKo-39" value="" style="edgeStyle=orthogonalEdgeStyle;rounded=0;orthogonalLoop=1;jettySize=auto;html=1;sketch=1;hachureGap=4;jiggle=2;curveFitting=1;fontFamily=Architects Daughter;fontSource=https%3A%2F%2Ffonts.googleapis.com%2Fcss%3Ffamily%3DArchitects%2BDaughter;fontSize=16;" edge="1" parent="o4_2ZhEMk7QJLGMqmEKo-33" source="o4_2ZhEMk7QJLGMqmEKo-40" target="o4_2ZhEMk7QJLGMqmEKo-41">
          <mxGeometry relative="1" as="geometry" />
        </mxCell>
        <mxCell id="o4_2ZhEMk7QJLGMqmEKo-55" value="" style="edgeStyle=orthogonalEdgeStyle;rounded=0;sketch=1;hachureGap=4;jiggle=2;curveFitting=1;orthogonalLoop=1;jettySize=auto;html=1;fontFamily=Architects Daughter;fontSource=https%3A%2F%2Ffonts.googleapis.com%2Fcss%3Ffamily%3DArchitects%2BDaughter;fontSize=16;" edge="1" parent="o4_2ZhEMk7QJLGMqmEKo-33" source="o4_2ZhEMk7QJLGMqmEKo-40" target="o4_2ZhEMk7QJLGMqmEKo-41">
          <mxGeometry relative="1" as="geometry" />
        </mxCell>
        <mxCell id="o4_2ZhEMk7QJLGMqmEKo-76" value="" style="endArrow=classic;html=1;rounded=0;sketch=1;hachureGap=4;jiggle=2;curveFitting=1;fontFamily=Architects Daughter;fontSource=https%3A%2F%2Ffonts.googleapis.com%2Fcss%3Ffamily%3DArchitects%2BDaughter;fontSize=16;exitX=1.04;exitY=0.65;exitDx=0;exitDy=0;exitPerimeter=0;entryX=0.5;entryY=1;entryDx=0;entryDy=0;" edge="1" parent="o4_2ZhEMk7QJLGMqmEKo-33" source="o4_2ZhEMk7QJLGMqmEKo-41" target="o4_2ZhEMk7QJLGMqmEKo-73">
          <mxGeometry width="50" height="50" relative="1" as="geometry">
            <mxPoint x="270" y="220" as="sourcePoint" />
            <mxPoint x="320" y="170" as="targetPoint" />
            <Array as="points">
              <mxPoint x="210" y="199" />
            </Array>
          </mxGeometry>
        </mxCell>
        <mxCell id="o4_2ZhEMk7QJLGMqmEKo-83" value="" style="endArrow=classic;html=1;rounded=0;sketch=1;hachureGap=4;jiggle=2;curveFitting=1;fontFamily=Architects Daughter;fontSource=https%3A%2F%2Ffonts.googleapis.com%2Fcss%3Ffamily%3DArchitects%2BDaughter;fontSize=16;exitX=1;exitY=0.5;exitDx=0;exitDy=0;entryX=0.5;entryY=0;entryDx=0;entryDy=0;" edge="1" parent="o4_2ZhEMk7QJLGMqmEKo-33" source="o4_2ZhEMk7QJLGMqmEKo-73" target="o4_2ZhEMk7QJLGMqmEKo-82">
          <mxGeometry width="50" height="50" relative="1" as="geometry">
            <mxPoint x="148" y="209" as="sourcePoint" />
            <mxPoint x="220" y="115" as="targetPoint" />
            <Array as="points">
              <mxPoint x="340" y="60" />
            </Array>
          </mxGeometry>
        </mxCell>
        <mxCell id="o4_2ZhEMk7QJLGMqmEKo-79" value="用户操作" style="swimlane;html=1;startSize=20;horizontal=0;sketch=1;hachureGap=4;jiggle=2;curveFitting=1;fontFamily=Architects Daughter;fontSource=https%3A%2F%2Ffonts.googleapis.com%2Fcss%3Ffamily%3DArchitects%2BDaughter;fontSize=20;" vertex="1" parent="1">
          <mxGeometry x="40" y="380" width="740" height="120" as="geometry" />
        </mxCell>
        <mxCell id="o4_2ZhEMk7QJLGMqmEKo-84" value="部门维度删|改" style="rounded=0;whiteSpace=wrap;html=1;fontFamily=Helvetica;fontSize=12;fontColor=#000000;align=center;sketch=1;hachureGap=4;jiggle=2;curveFitting=1;fontSource=https%3A%2F%2Ffonts.googleapis.com%2Fcss%3Ffamily%3DArchitects%2BDaughter;" vertex="1" parent="o4_2ZhEMk7QJLGMqmEKo-79">
          <mxGeometry x="280" y="40" width="80" height="60" as="geometry" />
        </mxCell>
        <mxCell id="o4_2ZhEMk7QJLGMqmEKo-86" value="" style="endArrow=classic;html=1;rounded=0;sketch=1;hachureGap=4;jiggle=2;curveFitting=1;fontFamily=Architects Daughter;fontSource=https%3A%2F%2Ffonts.googleapis.com%2Fcss%3Ffamily%3DArchitects%2BDaughter;fontSize=16;exitX=1;exitY=0.5;exitDx=0;exitDy=0;entryX=0.5;entryY=1;entryDx=0;entryDy=0;" edge="1" parent="1" source="o4_2ZhEMk7QJLGMqmEKo-84" target="o4_2ZhEMk7QJLGMqmEKo-85">
          <mxGeometry width="50" height="50" relative="1" as="geometry">
            <mxPoint x="300" y="90" as="sourcePoint" />
            <mxPoint x="370" y="310" as="targetPoint" />
            <Array as="points">
              <mxPoint x="480" y="450" />
            </Array>
          </mxGeometry>
        </mxCell>
      </root>
    </mxGraphModel>
  </diagram>
  <diagram id="mqfFdGKMs7hkD2UgRlGG" name="第 2 页">
    <mxGraphModel dx="1434" dy="830" grid="1" gridSize="10" guides="1" tooltips="1" connect="1" arrows="1" fold="1" page="1" pageScale="1" pageWidth="827" pageHeight="1169" math="0" shadow="0">
      <root>
        <mxCell id="0" />
        <mxCell id="1" parent="0" />
      </root>
    </mxGraphModel>
  </diagram>
</mxfile>
